<?xml version="1.0" encoding="utf-8"?>
<!-- Generator: Adobe Illustrator 25.3.0, SVG Export Plug-In . SVG Version: 6.00 Build 0)  -->
<svg version="1.1" id="Layer_1" xmlns="http://www.w3.org/2000/svg" xmlns:xlink="http://www.w3.org/1999/xlink" x="0px" y="0px"
	 viewBox="0 0 841.89 595.28" style="enable-background:new 0 0 841.89 595.28;" xml:space="preserve">
<style type="text/css">
	.st0{fill:#1D1D3E;}
	.st1{fill:#FFFFFF;}
	.st2{fill:#1DB8DE;}
</style>
<g>
	<g>
		<path class="st0" d="M206.21,282.28h-22.92v58.12c0,7.08-5.74,12.82-12.82,12.82h0v-124.3c0-8.41,3-15.61,9-21.61s13.2-9,21.61-9
			h15.29c7.08,0,12.82,5.74,12.82,12.82l-12.83,0h-15.28c-4.97,0-9.17,1.73-12.62,5.17c-3.45,3.45-5.17,7.65-5.17,12.62v40.54h22.92
			V282.28z"/>
		<path class="st0" d="M242.01,354.87L242.01,354.87c-7.08,0-12.83-5.74-12.83-12.83V234.92h0c7.08,0,12.83,5.74,12.83,12.83V354.87
			z"/>
		<path class="st0" d="M344.36,353.22L344.36,353.22c-7.08,0-12.83-5.74-12.83-12.83l0-59.14c0-8.02-2.77-15.89-8.08-21.91
			c-6.82-7.73-15.23-11.6-25.22-11.6c-10.15,0-18.63,3.88-25.45,11.62c-5.31,6.03-8.06,13.91-8.06,21.94l0,59.09
			c0,7.08-5.74,12.82-12.82,12.82h0v-72.18c0-12.49,4.38-23.21,13.14-32.16c8.69-8.88,20.78-13.96,33.2-13.96
			c12.68,0,23.53,4.52,32.56,13.55c9.03,9.03,13.55,19.89,13.55,32.57V353.22z"/>
		<path class="st0" d="M471.05,247.74h-7.24c-7.67,0-15.22,2.83-20.55,8.34c-5.05,5.22-7.57,11.45-7.57,18.7v78.44l0,0
			c-7.08,0-12.82-5.74-12.82-12.82v-65.77c0-11.83,4.6-21.84,13.8-30.01c4.93-4.38,10.92-7.33,17.3-8.74
			c2.88-0.64,17.09-0.96,17.09-0.96V247.74z"/>
		<path class="st0" d="M587.46,294.9v45.5c0,7.08-5.74,12.82-12.82,12.82h0V334.4c0-0.42-0.21-0.69-0.62-0.83
			c-0.41-0.13-0.76-0.07-1.04,0.21c-12.01,14.09-27.21,21.12-45.59,21.1c-15.29-0.02-30.27-5.99-41.3-16.58
			c-12.39-11.91-18.59-26.36-18.6-43.37c-0.01-15.83,6.17-30.9,17.31-42.15c11.77-11.9,26-17.85,42.67-17.85
			c16.68,0,31.02,5.89,43.02,17.68C582.49,264.39,588.15,278.49,587.46,294.9z M574.63,295c0-13.07-4.61-24.22-13.83-33.43
			c-9.22-9.22-20.29-13.83-33.23-13.83c-13.07,0-24.22,4.61-33.43,13.83c-9.22,9.22-13.83,20.36-13.83,33.43
			c0,12.93,4.61,24.01,13.83,33.22c9.22,9.22,20.36,13.83,33.43,13.83c12.93,0,24.01-4.61,33.23-13.83
			C570.02,319.01,574.63,307.93,574.63,295z"/>
		<path class="st0" d="M627.2,250.25l-16.98-0.03v103h0c-7.08,0-12.82-5.74-12.82-12.82V228.92c0-8.41,3-15.61,9-21.61
			c6-6,13.2-9,21.61-9h9.07c7.08,0,12.82,5.74,12.82,12.82l-21.11,0h-0.78c-4.97,0-9.17,1.73-12.62,5.17
			c-3.45,3.45-5.17,7.65-5.17,12.62v8.48l16.98,0.03V250.25z"/>
		<path class="st0" d="M671.42,353.22l-3.56,0c-7.36,0-14.58-2.51-20.12-7.36c-7.1-6.21-10.65-13.89-10.65-23.05V221.07h12.82v16.33
			h10.95l0,0c0,7.08-3.87,12.82-10.95,12.82v72.03c0,4.6,1.58,9.16,4.72,12.51c3.53,3.76,7.88,5.63,13.06,5.63h3.72V353.22z"/>
		<circle class="st2" cx="527.48" cy="294.9" r="37.4"/>
		<g>
			<path class="st0" d="M354.24,353.22L354.24,353.22v-142.7c0-7.11,5.77-12.88,12.88-12.88h0v142.7
				C367.12,347.45,361.36,353.22,354.24,353.22z M403.06,353.22L403.06,353.22l-31.78-44.87c-2.77-3.99-4.16-8.46-4.16-13.42
				c0-4.95,1.46-9.49,4.39-13.62l22.44-31.74c5.62-7.95,14.74-12.67,24.47-12.67h0l-36.56,51.72c-1.25,1.81-1.87,3.89-1.87,6.26
				c0,2.23,0.6,4.24,1.8,6.05l27.85,39.59C413.41,345.86,409.59,353.22,403.06,353.22z"/>
		</g>
	</g>
	<g>
		<path class="st0" d="M182.35,384.47h-9.03v12.46h-2.85v-25.58h11.88v2.68h-9.03v7.77h9.03V384.47z"/>
		<path class="st0" d="M250.92,396.92h-2.85v-25.58h2.85V396.92z"/>
		<path class="st0" d="M341.21,397.64l-19.81-20.16v19.45h-2.85v-26.29l19.81,20.11v-19.4h2.85V397.64z"/>
		<path class="st0" d="M421.36,373.91h-6.05v23.01h-2.85v-23.01h-6.03v-2.57h14.93V373.91z"/>
		<path class="st0" d="M499.48,396.92h-12.96v-25.58h12.96v2.68h-10.11v7.77h10.11v2.67h-10.11v9.77h10.11V396.92z"/>
		<path class="st0" d="M586.65,395.27c-0.94,0.61-2.2,1.12-3.79,1.54c-1.59,0.42-3.04,0.63-4.34,0.63c-3.92,0-7.17-1.26-9.74-3.77
			c-2.57-2.51-3.86-5.7-3.86-9.57c0-3.75,1.31-6.91,3.93-9.45c2.62-2.55,5.85-3.82,9.71-3.82c1.6,0,3.11,0.2,4.52,0.59
			c1.41,0.39,2.61,0.94,3.58,1.65v3.2c-1.05-0.85-2.27-1.52-3.65-2.01c-1.39-0.49-2.75-0.74-4.1-0.74c-3.16,0-5.8,1.01-7.94,3.02
			c-2.13,2.02-3.2,4.54-3.2,7.56c0,3.05,1.02,5.59,3.07,7.61c2.05,2.03,4.59,3.04,7.61,3.04c1.49,0,2.97-0.25,4.45-0.74
			c1.47-0.49,2.73-1.16,3.75-2.01V395.27z"/>
		<path class="st0" d="M671.42,396.92h-2.87V384.5h-13.22v12.43h-2.85v-25.58h2.85v10.49h13.22v-10.49h2.87V396.92z"/>
	</g>
</g>
</svg>
